HIERARCHY
ROOT Hips
{
  OFFSET -1.56614 0.00 -1.85809
  CHANNELS 6 Xposition Yposition Zposition Zrotation Xrotation Yrotation
  JOINT LHipJoint
  {
    OFFSET 0 0 0
    CHANNELS 3 Zrotation Xrotation Yrotation
    JOINT LeftUpLeg
    {
      OFFSET 1.8 -1.4 0.085
      CHANNELS 3 Zrotation Xrotation Yrotation
      JOINT LeftLeg
      {
        OFFSET 2.215 -6 0
        CHANNELS 3 Zrotation Xrotation Yrotation
        JOINT LeftFoot
        {
          OFFSET 2.5 -6.9 0
          CHANNELS 3 Zrotation Xrotation Yrotation
          JOINT LeftToeBase
          {
            OFFSET 0.2 -0.5 1.95
            CHANNELS 3 Zrotation Xrotation Yrotation
            End Site
            {
              OFFSET 0 0 1
            }
          }
        }
      }
    }
  }
  JOINT RHipJoint
  {
    OFFSET 0 0 0
    CHANNELS 3 Zrotation Xrotation Yrotation
    JOINT RightUpLeg
    {
      OFFSET -1.8 -1.4 0.085
      CHANNELS 3 Zrotation Xrotation Yrotation
      JOINT RightLeg
      {
        OFFSET -2.215 -6 0
        CHANNELS 3 Zrotation Xrotation Yrotation
        JOINT RightFoot
        {
          OFFSET -2.5 -6.9 0
          CHANNELS 3 Zrotation Xrotation Yrotation
          JOINT RightToeBase
          {
            OFFSET -0.2 -0.5 1.95
            CHANNELS 3 Zrotation Xrotation Yrotation
            End Site
            {
              OFFSET 0 0 1
            }
          }
        }
      }
    }
  }
  JOINT LowerBack
  {
    OFFSET 0 0 0
    CHANNELS 3 Zrotation Xrotation Yrotation
    JOINT Spine
    {
      OFFSET -0.087 1.94 -0.2889
      CHANNELS 3 Zrotation Xrotation Yrotation
      JOINT Spine1
      {
        OFFSET 0 1.95 0.06
        CHANNELS 3 Zrotation Xrotation Yrotation
        JOINT Neck
        {
          OFFSET 0 0 0
          CHANNELS 3 Zrotation Xrotation Yrotation
          JOINT Neck1
          {
            OFFSET 0 1.6 0.34
            CHANNELS 3 Zrotation Xrotation Yrotation
            JOINT Head
            {
              OFFSET 0 1.667 -0.24
              CHANNELS 3 Zrotation Xrotation Yrotation
              End Site
              {
                OFFSET 0 1.686 -0.12
              }
            }
          }
        }
        JOINT LeftShoulder
        {
          OFFSET 0 0 0
          CHANNELS 3 Zrotation Xrotation Yrotation
          JOINT LeftArm
          {
            OFFSET 2.7 1.55 -0.73
            CHANNELS 3 Zrotation Xrotation Yrotation
            JOINT LeftForeArm
            {
              OFFSET 5.45 0 0
              CHANNELS 3 Zrotation Xrotation Yrotation
              JOINT LeftHand
              {
                OFFSET 3.45 0 0
                CHANNELS 3 Zrotation Xrotation Yrotation
                JOINT LeftFingerBase
                {
                  OFFSET 0 0 0
                  CHANNELS 3 Zrotation Xrotation Yrotation
                  JOINT LeftHandIndex1
                  {
                    OFFSET 0.75 0 0
                    CHANNELS 3 Zrotation Xrotation Yrotation
                    End Site
                    {
                      OFFSET 0.6 0 0
                    }
                  }
                }
                JOINT LThumb
                {
                  OFFSET 0 0 0
                  CHANNELS 3 Zrotation Xrotation Yrotation
                  End Site
                  {
                    OFFSET 0.59 0 0.59
                  }
                }
              }
            }
          }
        }
        JOINT RightShoulder
        {
          OFFSET 0 0 0
          CHANNELS 3 Zrotation Xrotation Yrotation
          JOINT RightArm
          {
            OFFSET -2.7 1.55 -0.73
            CHANNELS 3 Zrotation Xrotation Yrotation
            JOINT RightForeArm
            {
              OFFSET -5.45 0 0
              CHANNELS 3 Zrotation Xrotation Yrotation
              JOINT RightHand
              {
                OFFSET -3.45 0 0
                CHANNELS 3 Zrotation Xrotation Yrotation
                JOINT RightFingerBase
                {
                  OFFSET 0 0 0
                  CHANNELS 3 Zrotation Xrotation Yrotation
                  JOINT RightHandIndex1
                  {
                    OFFSET -0.75 0 0
                    CHANNELS 3 Zrotation Xrotation Yrotation
                    End Site
                    {
                      OFFSET -0.6 0 0
                    }
                  }
                }
                JOINT RThumb
                {
                  OFFSET 0 0 0
                  CHANNELS 3 Zrotation Xrotation Yrotation
                  End Site
                  {
                    OFFSET -0.59 0 0.59
                  }
                }
              }
            }
          }
        }
      }
    }
  }
}
MOTION
Frames:	9
Frame Time:	0.00833333
-6.19177 16.1862 2.71787 -4.87934 0.855991 119.382 4.96962e-016 -9.93923e-016 -0 -31.0536 -54.4192 -25.5096 -31.3252 64.2759 20.956 -11.6116 8.40873 24.6289 -3.9937e-028 -1.84472e-013 -1.24042e-013 4.96962e-016 -9.93923e-016 -0 5.24587 -40.8247 9.84519 -7.07492 21.2439 1.52713 58.4852 26.6172 -10.8486 -4.77083e-015 5.08889e-014 9.85972e-014 4.96962e-016 -9.93923e-016 -0 2.61363 50.4945 -37.7782 -25.3036 37.0066 -26.9699 -0.519809 -42.5712 7.73788 -3.2651 -5.74674 7.09515 42.9677 34.2043 21.0295 7.40654 -0.399621 23.0533 4.79996 -33.6063 9.0366 12.9916 75.7974 -13.5449 -11.2629 2.90747 -11.3183 -2.98177e-015 -3.57812e-015 3.18055e-015 -1.98785e-016 2.18663e-015 -0 -2.98177e-015 -3.97569e-015 3.18055e-015 -104.699 -40.9689 34.2965 146.393 -30.4998 152.268 -5.88742 35.9681 10.6065 -2.14417 -1.6237 -13.1133 7.48135e-008 4.18487e-007 -3.70229e-008 -3.47873e-015 -3.18055e-015 -4.47266e-015 -2.83268e-015 3.18055e-015 -7.95139e-016 
-6.01637 16.2199 2.94556 -4.85597 0.857133 121.645 0 4.96962e-016 -0 -30.7406 -53.8993 -25.4613 -29.5553 63.9775 19.1237 -12.3738 8.34018 25.1999 -3.18055e-015 -1.82882e-013 -1.36764e-013 0 4.96962e-016 -0 5.23648 -40.4716 9.94607 -7.65159 23.1005 1.43112 59.2948 25.3042 -9.54502 6.36111e-015 4.77083e-014 9.22361e-014 0 4.96962e-016 -0 2.49008 50.2437 -38.8424 -25.5193 36.813 -28.1292 -1.06556 -42.5632 8.06033 -3.88979 -5.76334 7.53592 44.5622 34.0098 21.6911 7.10589 -0.483617 24.6579 4.37717 -33.0732 9.95378 17.3916 76.9565 -17.2362 -10.5118 3.16773 -12.7678 2.5842e-015 -1.98785e-015 6.36111e-015 -1.98785e-015 2.38542e-015 -0 2.5842e-015 -2.5842e-015 6.36111e-015 -110.312 -40.4847 30.4938 149.297 -26.1309 154.467 -6.00804 35.1088 11.1926 -1.44532 -1.6276 -12.6048 7.48135e-008 4.18487e-007 -3.70229e-008 2.8948e-015 -6.36111e-015 -5.2181e-015 -1.76421e-015 0 1.04362e-015 
-5.83344 16.2574 3.17208 -4.84343 0.842982 123.942 -9.93923e-016 -3.97569e-016 -0 -30.478 -53.3138 -25.4817 -27.557 63.5126 17.2466 -13.088 8.40502 25.608 -3.18055e-015 -1.84472e-013 -1.36764e-013 -9.93923e-016 -3.97569e-016 -0 5.25507 -40.0549 10.016 -8.15057 24.8333 1.30887 59.8466 23.8911 -8.16692 6.36111e-015 5.08889e-014 9.54166e-014 -9.93923e-016 -3.97569e-016 -0 2.37312 49.9966 -39.9297 -25.7392 36.621 -29.3083 -1.5467 -42.5866 8.39153 -4.45703 -5.8125 7.96499 46.0909 33.8811 22.4194 6.7477 -0.587218 26.3365 4.01376 -32.4227 10.9726 23.4855 77.9415 -22.5801 -9.85761 3.48039 -14.4267 3.18055e-015 1.98785e-016 6.36111e-015 -9.93923e-016 9.93923e-016 3.18055e-015 3.18055e-015 -3.97569e-016 6.36111e-015 -116.098 -39.2663 26.3221 151.957 -21.1775 156.523 -6.08032 34.3998 11.7458 -0.821279 -1.63281 -12.1619 7.48135e-008 4.18487e-007 -3.70229e-008 -2.08724e-015 0 -6.36111e-015 -9.93923e-016 3.18055e-015 1.19271e-015 
-5.64543 16.3035 3.39458 -4.81309 0.823711 126.26 -3.97569e-016 7.95139e-016 3.18055e-015 -30.2093 -52.6331 -25.4419 -25.2593 62.739 15.344 -13.6313 8.90067 25.7554 -4.23735e-028 -1.90833e-013 -1.27222e-013 -3.97569e-016 7.95139e-016 3.18055e-015 5.37427 -39.6197 10.0986 -8.52708 26.4521 1.03029 59.7295 22.6277 -6.55558 -7.95139e-015 3.49861e-014 8.90555e-014 -3.97569e-016 7.95139e-016 3.18055e-015 2.25997 49.7807 -41.0169 -25.9511 36.4749 -30.4795 -1.94576 -42.6705 8.71721 -4.94522 -5.92108 8.36299 47.5656 33.8349 23.1826 6.43059 -0.70677 28.1499 3.49561 -31.9439 11.6181 29.3644 78.9464 -27.6001 -9.18869 3.75271 -16.0234 -3.97569e-015 -3.97569e-016 3.18055e-015 -5.96354e-016 -3.97569e-016 -0 -3.97569e-015 -7.95139e-016 3.18055e-015 -121.869 -37.0605 21.8984 154.351 -15.5511 158.478 -6.29415 34.7611 12.2111 -0.515807 -1.6421 -11.9924 7.48135e-008 4.18487e-007 -3.70229e-008 -2.38542e-015 3.18055e-015 -7.35503e-015 1.88845e-015 3.18055e-015 -1.98785e-016 
-5.45006 16.3602 3.61364 -4.75573 0.788624 128.615 7.95139e-016 -9.93923e-017 -3.18055e-015 -30.0164 -51.8212 -25.4516 -22.6187 61.6494 13.547 -13.9569 9.86545 25.5549 -4.37506e-028 -1.87653e-013 -1.33583e-013 7.95139e-016 -9.93923e-017 -3.18055e-015 5.59023 -39.1165 10.1805 -8.73756 27.9169 0.574174 58.8594 21.4928 -4.58854 -3.18055e-015 5.08889e-014 9.54166e-014 7.95139e-016 -9.93923e-017 -3.18055e-015 2.19195 49.5864 -42.1427 -26.1668 36.3412 -31.664 -2.2737 -42.8048 9.04974 -5.36892 -6.08084 8.74418 49.0385 33.8695 23.9912 6.14832 -0.82977 30.1141 2.88961 -31.5984 11.9948 35.5975 80.0297 -32.8184 -8.4075 3.99976 -17.7613 6.16232e-015 7.95139e-016 6.36111e-015 -3.37934e-015 2.38542e-015 3.18055e-015 6.16232e-015 0 6.36111e-015 -127.323 -33.798 17.3744 156.35 -9.19245 160.238 -6.67741 36.2518 12.6173 -0.555552 -1.65718 -12.1264 7.48135e-008 4.18487e-007 -3.70229e-008 -2.88238e-015 -6.36111e-015 -8.54774e-015 0 0 -1.39149e-015 
-5.24805 16.4232 3.83027 -4.69251 0.740521 131 -5.51738e-032 -4.96962e-016 -6.36111e-015 -29.8544 -50.927 -25.4842 -19.8278 60.3241 11.8367 -14.1545 11.1147 25.1464 -3.18055e-015 -1.84472e-013 -1.24042e-013 -5.51738e-032 -4.96962e-016 -6.36111e-015 5.86725 -38.5653 10.2506 -8.82465 29.256 0.0183286 57.5551 20.3575 -2.46215 7.95139e-015 4.13472e-014 9.22361e-014 -5.51738e-032 -4.96962e-016 -6.36111e-015 2.13772 49.4042 -43.2871 -26.3778 36.2232 -32.8598 -2.52738 -42.9827 9.38774 -5.72467 -6.28446 9.1066 50.4475 33.9725 24.8577 5.85887 -0.96479 32.1824 2.26611 -31.2693 12.273 43.1204 81.0082 -39.2545 -7.65695 4.25348 -19.6055 -8.94531e-015 2.78299e-015 -3.18055e-015 -1.98785e-015 -1.59028e-015 -3.18055e-015 -8.94531e-015 1.98785e-015 -3.18055e-015 -132.195 -29.5485 12.9855 157.995 -2.1779 161.797 -7.15252 38.3222 13.012 -0.786033 -1.67504 -12.4255 7.48135e-008 4.18487e-007 -3.70229e-008 -3.18055e-015 9.54166e-015 -3.97569e-015 7.95139e-016 0 2.78299e-015 
-5.04216 16.4869 4.04471 -4.64929 0.694527 133.393 -9.93923e-017 -1.19271e-015 3.18055e-015 -29.6197 -50.0218 -25.4216 -17.1359 58.8247 10.1275 -14.3392 12.4723 24.7227 -3.18055e-015 -1.78111e-013 -1.30403e-013 -9.93923e-017 -1.19271e-015 3.18055e-015 6.18226 -38.0295 10.3137 -8.85578 30.5296 -0.562134 56.1366 19.1498 -0.439124 7.95139e-016 3.49861e-014 9.54166e-014 -9.93923e-017 -1.19271e-015 3.18055e-015 2.03665 49.2369 -44.4002 -26.5599 36.1545 -34.0481 -2.69227 -43.2089 9.71921 -5.99469 -6.53442 9.43506 51.69 34.1334 25.7837 5.54135 -1.12686 34.3041 1.62531 -30.9097 12.4853 51.8917 81.6916 -46.9794 -7.14298 4.52441 -21.3316 3.57812e-015 -3.57812e-015 -3.18055e-015 9.93923e-016 3.97569e-016 -0 3.57812e-015 -4.37326e-015 -3.18055e-015 -136.337 -24.4135 8.90166 159.378 5.39708 163.228 -7.65325 40.5015 13.4142 -1.0654 -1.69185 -12.7564 7.48135e-008 4.18487e-007 -3.70229e-008 -1.78906e-015 6.36111e-015 -7.15625e-015 1.98785e-016 3.18055e-015 1.19271e-015 
-4.83518 16.5463 4.25734 -4.65292 0.669499 135.775 -1.49089e-015 1.98785e-016 -0 -29.2194 -49.1734 -25.1523 -14.7918 57.2035 8.34081 -14.6394 13.7641 24.4611 -4.37506e-028 -1.87653e-013 -1.33583e-013 -1.49089e-015 1.98785e-016 -0 6.51657 -37.5705 10.3758 -8.90384 31.799 -1.09171 54.8917 17.8139 1.23155 5.56597e-015 3.49861e-014 9.22361e-014 -1.49089e-015 1.98785e-016 -0 1.83038 49.091 -45.4362 -26.6886 36.1676 -35.2137 -2.752 -43.4893 10.0331 -6.16006 -6.83442 9.71455 52.6655 34.3449 26.7722 5.1799 -1.32718 36.4342 0.96613 -30.4724 12.6628 61.103 81.9039 -55.2908 -7.08403 4.8302 -22.7237 4.77083e-015 -1.59028e-015 -3.18055e-015 5.76476e-015 0 -0 4.77083e-015 -2.38542e-015 -3.18055e-015 -139.707 -18.5143 5.18177 160.557 13.459 164.625 -8.10059 42.3393 13.8187 -1.2597 -1.70387 -12.992 7.48135e-008 4.18487e-007 -3.70229e-008 -4.77083e-015 0 -5.96354e-015 -3.18055e-015 -6.36111e-015 -1.59028e-015 
-4.62813 16.603 4.47084 -4.69372 0.688626 138.152 -9.93923e-016 7.95139e-016 9.54166e-015 -28.6269 -48.385 -24.6347 -12.8785 55.4198 6.56401 -15.0161 15.07 24.2534 -3.18055e-015 -1.90833e-013 -1.33583e-013 -9.93923e-016 7.95139e-016 9.54166e-015 6.92494 -37.189 10.4635 -9.00226 33.0911 -1.57173 53.6581 16.3948 2.57925 7.95139e-015 4.77083e-014 9.85972e-014 -9.93923e-016 7.95139e-016 9.54166e-015 1.51994 48.9848 -46.4132 -26.786 36.2558 -36.367 -2.66912 -43.8424 10.3382 -6.18977 -7.20274 9.94116 53.3457 34.6536 27.8468 4.8167 -1.53368 38.6352 0.292701 -29.9347 12.8034 70.2785 81.6124 -63.6916 -7.71047 5.2332 -23.8131 -4.96962e-015 1.59028e-015 -3.18055e-015 -1.98785e-015 1.98785e-015 -0 -4.96962e-015 7.95139e-016 -3.18055e-015 -142.229 -11.644 1.64733 161.359 22.2226 166.064 -8.49316 43.9454 14.2104 -1.43069 -1.70894 -13.1649 7.48135e-008 4.18487e-007 -3.70229e-008 -2.38542e-015 0 -4.77083e-015 -7.95139e-016 1.59028e-014 7.95139e-016 
